/* XPM */
static char * solarus_launcher_icon_32_xpm[] = {
"32 32 30 1",
" 	c None",
".	c #ED8312",
"+	c #F29810",
"@	c #F8B00E",
"#	c #FABA0D",
"$	c #FCD059",
"%	c #FEF7E2",
"&	c #FFFFFF",
"*	c #FDEAC4",
"=	c #FEF2D2",
"-	c #FEF5E2",
";	c #FEF8F1",
">	c #F9D9B6",
",	c #FBE0C4",
"'	c #FDE5A5",
")	c #F8D1A7",
"!	c #EF8A11",
"~	c #FADBB5",
"{	c #FAD8A6",
"]	c #F29710",
"^	c #FCE2A5",
"/	c #FCEAD3",
"(	c #EF8D11",
"_	c #F19410",
":	c #F8B30E",
"<	c #FCE8D3",
"[	c #F49F0F",
"}	c #EE8612",
"|	c #F9B70D",
"1	c #F5A60F",
"                                ",
"                                ",
"                                ",
"                                ",
"                                ",
"                                ",
"                                ",
"                                ",
"                                ",
"    ......            ......    ",
"   +@######################@+   ",
"  ###########$%&&%$###########  ",
" ###########$&&&&&*$########### ",
" ####==#####-&&;>,&-####''##### ",
"#####&&#####&&&)!~&&####{{######",
"###=&&&&=###&&)]^;&&#''#]]#''###",
"###/&&&&/###>)]'&&&>#{{####{{###",
"###(.&&.(###_]#_..._#]]#''#]]###",
":####<<#################{{#####:",
"[####((#################]]#####[",
".@############################@.",
" }@#######|+........_|#######@} ",
" ..+@###|1!..........!1|###@+.. ",
"  .........          .........  ",
"    ......            ......    ",
"                                ",
"                                ",
"                                ",
"                                ",
"                                ",
"                                ",
"                                "};
