/* XPM */
static char * solarus_launcher_icon_16_xpm[] = {
"16 16 13 1",
" 	c None",
".	c #FABA0D",
"+	c #FDDD86",
"@	c #FFFFFF",
"#	c #FCD877",
"$	c #FEF7E2",
"%	c #FFFBF1",
"&	c #FEEEC3",
"*	c #FCD468",
"=	c #F4A20F",
"-	c #ED8312",
";	c #F5A60F",
">	c #F09111",
"                ",
"                ",
"                ",
"                ",
" .............. ",
"......+@@#......",
"...$..@%&@..&...",
"..$@$.%*%@.&.&..",
"...$........&...",
"=..............=",
"-=..;>---->;..=-",
" ----      ---- ",
"                ",
"                ",
"                ",
"                "};
